# Blender v2.80 (sub 45) OBJ File: 'ColorCube.blend'
# www.blender.org
mtllib ColorCube.mtl
o Cube
v 0.500000 0.500000 -0.500000
v 0.500000 -0.500000 -0.500000
v 0.500000 0.500000 0.500000
v 0.500000 -0.500000 0.500000
v -0.500000 0.500000 -0.500000
v -0.500000 -0.500000 -0.500000
v -0.500000 0.500000 0.500000
v -0.500000 -0.500000 0.500000
vt 0.625000 0.000000
vt 0.375000 0.250000
vt 0.375000 0.000000
vt 0.375000 0.500000
vt 0.125000 0.750000
vt 0.125000 0.500000
vt 0.625000 0.250000
vt 0.375000 0.750000
vt 0.625000 0.500000
vt 0.375000 0.750000
vt 0.375000 0.500000
vt 0.875000 0.500000
vt 0.625000 0.750000
vt 0.625000 0.500000
vt 0.625000 0.750000
vt 0.875000 0.750000
vt 0.625000 0.250000
vt 0.375000 0.250000
vt 0.375000 1.000000
vt 0.625000 1.000000
vn 0.0000 1.0000 0.0000
vn 1.0000 0.0000 0.0000
vn -1.0000 0.0000 0.0000
vn 0.0000 0.0000 -1.0000
vn 0.0000 0.0000 1.0000
vn 0.0000 -1.0000 0.0000
usemtl Green
s off
f 5/1/1 3/2/1 1/3/1
f 1/4/2 4/5/2 2/6/2
f 5/1/1 7/7/1 3/2/1
f 1/4/2 3/8/2 4/5/2
usemtl Blue
f 7/9/3 6/10/3 8/11/3
f 5/12/4 2/13/4 6/14/4
f 7/9/3 5/15/3 6/10/3
f 5/12/4 1/16/4 2/13/4
usemtl Red
f 3/17/5 8/11/5 4/18/5
f 2/13/6 8/19/6 6/10/6
f 3/17/5 7/9/5 8/11/5
f 2/13/6 4/20/6 8/19/6
